<!--?xml version="1.0" standalone="no"?-->
              <svg id="sw-js-blob-svg" viewBox="0 0 100 100" xmlns="http://www.w3.org/2000/svg" version="1.1">
                    <defs> 
                        <linearGradient id="sw-gradient" x1="0" x2="1" y1="1" y2="0">
                            <stop id="stop1" stop-color="rgba(0, 164.289, 255, 1)" offset="0%"></stop>
                            <stop id="stop2" stop-color="rgba(0, 49.325, 96.953, 1)" offset="100%"></stop>
                        </linearGradient>
                    </defs>
                <path fill="url(#sw-gradient)" d="M11.6,-17C16.4,-17.2,22.8,-17,28.3,-14.1C33.8,-11.2,38.5,-5.6,39.6,0.6C40.7,6.9,38.1,13.7,32.2,15.9C26.3,18.1,17,15.7,11.1,20.5C5.1,25.2,2.6,37.1,-0.7,38.2C-3.9,39.4,-7.8,29.8,-12.1,24.1C-16.3,18.4,-21,16.6,-22.8,13.3C-24.5,9.9,-23.3,4.9,-22.4,0.5C-21.5,-3.9,-20.8,-7.8,-20.5,-13.6C-20.1,-19.3,-20.1,-27,-16.7,-27.7C-13.3,-28.4,-6.7,-22.1,-1.7,-19.2C3.4,-16.4,6.7,-16.9,11.6,-17Z" width="100%" height="100%" transform="translate(50 50)" style="transition: 0.3s;" stroke-width="0"></path>
              </svg>